# xmcd
#
# Track frame offsets:
#	150
#	16397
#	29252
#	46900
#	58825
#	72942
#	93070
#	108845
#	122397
#	142342
#	156515
#	167637
#
# Disc length: 2467 seconds
#
# Revision: 0
# Processed by: cddbd v1.4PL0 Copyright (c) Steve Scherf et al.
# Submitted via: dBpowerAMP V4.0
#
DISCID=9d09a10c
DTITLE=Pancho barraza - El Vagabundo que te Ama
DYEAR=1900
DGENRE=Ballad
TTITLE0=Por Amor y Fe
TTITLE1=Muchachita Labios Rojos
TTITLE2=Mi Enemigo el Amor
TTITLE3=Ojala sea Cierto
TTITLE4=De Frente al Mar
TTITLE5=Aquella Morena
TTITLE6=Al Final de Tu Camino
TTITLE7=Historia de Amores
TTITLE8=Una Lagrima de orgullo
TTITLE9=Mi triste Copa
TTITLE10=El Vagabundo que te Ama
TTITLE11=Dale Dale
EXTD=this is some of the Mexican Bandas,
EXTT0=
EXTT1=
EXTT2=
EXTT3=
EXTT4=
EXTT5=
EXTT6=
EXTT7=
EXTT8=
EXTT9=
EXTT10=
EXTT11=
PLAYORDER=
